<?xml version="1.0" standalone="no"?>
<!DOCTYPE svg PUBLIC "-//W3C//DTD SVG 20010904//EN"
 "http://www.w3.org/TR/2001/REC-SVG-20010904/DTD/svg10.dtd">
<svg version="1.0" xmlns="http://www.w3.org/2000/svg"
 width="1643.000000pt" height="1643.000000pt" viewBox="0 0 1643.000000 1643.000000"
 preserveAspectRatio="xMidYMid meet">
<metadata>
Created by potrace 1.14, written by Peter Selinger 2001-2017
</metadata>
<g transform="translate(0.000000,1643.000000) scale(0.100000,-0.100000)"
fill="#000000" stroke="none">
<path d="M563 10979 c-14 -5 -16 -68 -15 -672 0 -367 -3 -668 -6 -668 -4 -1
-123 -2 -264 -3 -141 -1 -260 -5 -264 -9 -5 -4 -8 -91 -8 -192 -1 -158 1 -185
14 -186 8 -1 219 -2 467 -3 l453 -1 -3 869 -2 869 -178 1 c-98 1 -185 -2 -194
-5z"/>
<path d="M2448 10982 l-28 -3 0 -192 0 -193 256 1 c155 0 258 -4 262 -10 3 -5
6 -46 6 -90 l1 -80 211 -3 211 -2 -1 90 c-1 53 3 90 9 91 6 1 120 2 255 3
l245 1 0 193 0 192 -40 1 c-173 2 -1366 3 -1387 1z"/>
<path d="M1030 10111 l0 -869 680 0 680 0 0 194 0 194 -22 1 c-13 0 -232 1
-487 2 l-463 2 0 473 c0 260 2 475 5 479 3 3 222 5 486 5 l481 0 0 194 0 194
-680 0 -680 0 0 -869z"/>
<path d="M8492 10600 c-4 -3 -7 -302 -6 -665 1 -657 1 -660 23 -725 62 -177
161 -314 292 -408 74 -52 238 -111 359 -128 52 -7 299 -13 316 -7 8 3 12 49
12 149 l0 146 -27 -8 c-14 -4 -71 -8 -127 -10 -231 -5 -410 81 -498 239 -36
65 -52 114 -60 182 -17 151 -27 469 -15 503 6 16 35 17 365 17 l359 0 0 140 0
140 -225 -2 c-124 -1 -285 -2 -358 -3 -73 -1 -136 1 -140 4 -3 4 -6 104 -6
224 l-1 217 -128 0 c-70 1 -131 -2 -135 -5z"/>
<path d="M6069 10378 c-1 -2 -2 -174 -4 -383 -2 -475 -11 -622 -41 -707 -72
-204 -256 -320 -509 -321 -49 -1 -110 3 -135 7 l-46 8 0 -146 0 -146 60 -1
c296 -5 464 32 622 137 113 75 189 167 254 307 69 147 68 137 66 719 l-2 523
-132 3 c-73 1 -133 1 -133 0z"/>
<path d="M7365 10348 c-337 -43 -638 -315 -711 -643 -19 -87 -24 -214 -11
-295 12 -71 30 -145 37 -155 4 -5 11 -21 15 -35 45 -146 217 -344 377 -433
273 -152 637 -125 893 66 64 48 81 63 135 123 49 54 110 152 110 176 0 4 -62
8 -139 8 l-139 0 -53 -51 c-68 -63 -145 -111 -229 -140 -93 -32 -257 -33 -355
-2 -137 44 -276 160 -334 280 -38 78 -47 99 -56 131 l-6 22 695 0 c408 0 697
4 700 9 16 26 6 228 -15 316 -56 226 -252 460 -471 560 -124 57 -298 81 -443
63z m296 -280 c122 -45 212 -110 270 -195 38 -55 84 -147 97 -194 l10 -36
-552 2 c-303 2 -559 4 -568 4 -15 1 -15 6 -6 34 58 179 198 327 364 385 87 31
90 31 209 28 86 -3 125 -9 176 -28z"/>
<path d="M1509 10320 c-1 -3 -3 -89 -4 -192 -1 -163 0 -187 14 -190 9 -2 558
-3 1222 -3 l1205 0 0 -422 c0 -421 0 -423 -20 -424 -12 0 -241 -2 -511 -2
l-490 -2 -2 -267 c0 -148 2 -269 5 -269 4 -1 91 -2 195 -3 l187 -1 0 77 0 77
526 0 c290 0 529 3 532 6 3 2 6 367 6 810 2 719 0 805 -14 806 -51 4 -2850 3
-2851 -1z"/>
<path d="M13 9081 c-4 -3 -8 -393 -8 -866 l1 -860 629 -3 630 -2 0 357 0 358
1360 3 1360 2 -1 -147 c-1 -82 -2 -156 -3 -165 -1 -17 -24 -18 -336 -18 l-334
0 -3 122 -3 123 -188 0 c-180 0 -188 -1 -192 -20 -2 -11 -3 -153 -2 -315 l2
-295 725 -3 725 -2 -2 527 c-1 291 -2 540 -2 556 l-1 27 -1745 0 -1745 0 -1
-47 c0 -27 -1 -189 -1 -360 l-1 -313 -241 0 -241 0 0 673 0 672 -187 1 c-102
1 -190 -1 -195 -5z"/>
<path d="M1354 8823 c0 -148 3 -270 7 -273 4 -3 92 -5 195 -5 l188 0 0 78 -1
77 349 0 c271 0 348 -3 349 -12 1 -7 2 -42 3 -78 l1 -65 190 0 190 0 3 273 2
272 -738 0 -738 0 0 -267z"/>
<path d="M1361 7980 c-4 -3 -7 -144 -7 -315 l1 -310 738 -2 737 -1 0 316 0
317 -190 0 c-161 0 -191 -2 -194 -15 -3 -8 -4 -55 -4 -105 0 -49 0 -98 -1
-107 -1 -17 -25 -18 -349 -18 l-349 0 1 116 c1 64 -1 119 -4 123 -6 7 -368 9
-379 1z"/>
<path d="M12940 7820 c-5 -3 -10 -300 -11 -660 l-1 -655 27 -80 c89 -266 264
-437 515 -504 110 -29 130 -32 303 -37 l157 -5 0 151 0 150 -27 -6 c-16 -3
-35 -8 -43 -10 -17 -6 -149 -5 -195 0 -258 32 -428 201 -450 448 -3 29 -8 151
-12 271 l-6 217 366 0 366 0 -1 144 -1 143 -161 -2 c-89 -2 -251 -4 -361 -6
l-200 -4 -5 224 -5 224 -123 1 c-68 1 -127 -1 -132 -4z"/>
<path d="M5340 7566 c0 -17 -1 -258 -1 -536 l-2 -505 32 -88 c94 -260 248
-411 498 -488 35 -11 76 -22 91 -24 15 -2 50 -7 77 -11 53 -8 271 -12 293 -6
9 3 12 43 12 154 0 98 -3 147 -10 143 -30 -19 -204 -27 -280 -14 -114 21 -233
77 -292 140 -74 77 -123 192 -134 314 -3 39 -8 250 -10 470 -3 220 -5 418 -7
440 l-2 40 -132 1 -133 1 0 -31z"/>
<path d="M7335 7583 c-212 -36 -434 -181 -560 -368 -174 -257 -187 -599 -33
-875 124 -223 359 -391 596 -427 59 -8 224 -8 277 1 106 18 236 69 322 127 94
63 298 288 301 332 0 4 10 27 21 50 51 105 75 296 56 442 -43 340 -340 654
-675 715 -91 17 -217 18 -305 3z m285 -279 c146 -33 302 -162 380 -313 52
-102 62 -300 21 -419 -62 -183 -233 -343 -408 -383 -76 -17 -222 -14 -284 6
-198 65 -351 215 -401 393 -26 93 -26 236 1 322 59 190 217 344 404 395 70 19
203 18 287 -1z"/>
<path d="M10483 7587 c-4 -6 -6 -1295 -4 -1622 l1 -60 133 0 132 0 0 845 0
844 -128 0 c-71 1 -131 -3 -134 -7z"/>
<path d="M14267 7590 c-10 -4 -12 -183 -11 -840 1 -459 2 -837 3 -840 0 -3 61
-5 134 -5 l132 0 0 838 c1 461 -2 841 -5 845 -6 8 -234 10 -253 2z"/>
<path d="M15557 7594 c-1 -1 -29 -5 -62 -9 -256 -29 -520 -222 -644 -472 -60
-120 -75 -194 -75 -358 0 -164 15 -236 76 -365 118 -246 360 -434 609 -473
248 -38 448 8 644 148 146 105 254 246 311 407 16 45 29 41 -140 43 l-128 1
-38 -56 c-73 -108 -169 -195 -260 -238 -59 -27 -147 -44 -224 -43 -87 0 -91 1
-179 24 -104 27 -220 111 -294 210 -80 110 -107 194 -107 337 -1 261 173 486
429 556 46 12 235 14 275 2 8 -3 33 -10 56 -16 89 -26 235 -143 301 -243 l24
-37 140 0 c76 0 141 3 143 7 3 4 -13 44 -35 90 -121 255 -380 449 -637 477
-60 6 -181 12 -185 8z"/>
<path d="M11659 7575 c-118 -24 -264 -97 -359 -181 -87 -77 -159 -162 -196
-234 -24 -47 -28 -67 -29 -135 0 -117 30 -174 135 -252 91 -67 164 -96 340
-132 103 -21 149 -28 290 -46 30 -3 66 -8 80 -10 14 -2 45 -7 70 -10 118 -17
248 -47 289 -67 95 -48 97 -144 5 -242 -66 -70 -134 -85 -400 -87 -82 -1 -139
4 -184 16 -73 18 -181 73 -223 113 -28 26 -29 27 -190 28 -89 0 -165 -1 -169
-3 -16 -8 62 -121 129 -184 132 -127 270 -197 458 -234 54 -11 308 -13 370 -4
170 27 339 115 462 241 36 36 46 57 63 123 51 201 5 337 -139 409 -127 64
-450 144 -686 171 -33 4 -63 9 -67 11 -4 3 -26 7 -50 10 -102 14 -249 67 -300
107 -59 46 39 196 167 257 125 59 314 90 420 68 135 -27 198 -62 305 -167 l85
-83 130 -2 c179 -2 172 -6 133 68 -116 221 -318 381 -562 445 -87 23 -279 26
-377 6z"/>
<path d="M9298 7565 c-1 -1 -21 -5 -43 -9 -22 -3 -60 -12 -85 -20 -396 -124
-648 -519 -584 -916 45 -279 215 -510 469 -637 183 -92 422 -104 630 -31 85
29 131 53 205 108 193 142 313 333 347 554 7 44 6 188 -1 221 -2 11 -5 22 -5
25 -1 3 -56 5 -123 4 -68 -2 -306 -3 -530 -3 l-408 -1 0 -125 0 -125 404 0
405 0 -21 -62 c-42 -126 -153 -256 -278 -325 -83 -46 -139 -58 -275 -58 -113
1 -138 4 -190 24 -184 73 -321 225 -370 411 -21 79 -14 236 14 323 57 175 247
349 421 384 50 10 193 9 255 -2 91 -16 209 -82 285 -159 l44 -44 143 0 c106 0
143 4 143 13 0 25 -81 135 -153 208 -120 122 -259 200 -414 232 -55 12 -275
20 -285 10z"/>
<path d="M23 7190 c-17 -5 -18 -44 -18 -863 1 -620 4 -860 12 -865 9 -6 269
-8 358 -3 20 1 20 8 20 860 0 473 -4 863 -8 867 -8 9 -334 12 -364 4z"/>
<path d="M492 7190 c-5 -4 -8 -978 -3 -1037 1 -10 108 -13 500 -13 l498 0 1
-144 c0 -101 -4 -146 -12 -148 -6 -2 -230 -4 -498 -4 -320 1 -489 -2 -491 -9
-1 -5 -2 -91 -2 -190 l1 -180 692 -3 692 -2 0 530 0 530 -32 1 c-18 0 -241 0
-495 0 -356 0 -462 2 -465 12 -2 6 -4 71 -4 142 l1 130 730 0 730 0 2 -650 c1
-357 2 -660 2 -672 l1 -23 210 0 210 0 0 28 c1 15 2 317 3 672 l2 645 458 0
c297 0 457 3 458 10 4 42 3 368 -1 374 -6 8 -3177 9 -3188 1z"/>
<path d="M3789 7192 c-12 -2 -14 -122 -14 -867 0 -861 0 -865 20 -866 55 -3
552 -4 566 -1 14 3 16 28 16 192 0 165 -2 189 -16 192 -9 3 -55 4 -103 3 -49
-1 -89 1 -89 4 -1 3 -3 219 -4 479 -1 326 2 472 9 473 6 1 54 2 106 3 l95 1 3
193 2 192 -22 1 c-57 3 -556 4 -569 1z"/>
<path d="M3299 6700 c-1 -3 -2 -283 -3 -622 -1 -544 1 -618 14 -619 56 -4 353
-3 363 1 9 4 12 149 12 625 l0 620 -192 0 c-106 0 -194 -2 -194 -5z"/>
</g>
</svg>
